<?xml version="1.0" standalone="no"?>
<!DOCTYPE svg PUBLIC "-//W3C//DTD SVG 20010904//EN" "http://www.w3.org/TR/2001/REC-SVG-20010904/DTD/svg10.dtd">
<!-- Created using Krita: http://krita.org -->
<svg xmlns="http://www.w3.org/2000/svg" 
    xmlns:xlink="http://www.w3.org/1999/xlink"
    xmlns:krita="http://krita.org/namespaces/svg/krita"
    xmlns:sodipodi="http://sodipodi.sourceforge.net/DTD/sodipodi-0.dtd"
    width="552.96pt"
    height="184.32pt"
    viewBox="0 0 552.96 184.32">
<defs/>
<ellipse id="shape1" transform="matrix(0.43103443994585 0 0 0.43103443994585 134.999993151734 339.284485624367)" rx="86.76" ry="113.4" cx="86.76" cy="113.4" fill="#0f7128" fill-rule="evenodd" stroke="#000000" stroke-width="19.44" stroke-linecap="square" stroke-linejoin="bevel"/><path id="shape2" transform="matrix(0.43103443994585 0 0 0.43103443994585 135.684173262131 387.470436243145)" fill="none" stroke="#000000" stroke-width="8.64" stroke-linecap="square" stroke-linejoin="bevel" d="M0 1.52735C57.5302 31.5652 114.212 31.0561 170.045 0"/><rect id="shape3" transform="matrix(0.43103443994585 0 0 -0.43103443994585 161.296892332381 337.248420848376)" fill="none" stroke="#000000" stroke-width="7.2" stroke-linecap="square" stroke-linejoin="bevel" width="49.5752564691952" height="2.13791335848609"/><rect id="shape4" transform="matrix(0.43103443994585 0 0 0.43103443994585 167.339392219064 311.725867834284)" fill="#000000" fill-rule="evenodd" stroke="#000000" stroke-width="7.2" stroke-linecap="square" stroke-linejoin="bevel" width="22.2738646306238" height="56.16"/><ellipse id="shape5" transform="matrix(0.43103443994585 0 0 0.43103443994585 188.819986803658 300.236903395914)" rx="36.6462414106461" ry="41.7600086411513" cx="36.6462414106461" cy="41.7600086411513" fill="none" stroke="#000000" stroke-width="8.64" stroke-linecap="square" stroke-linejoin="bevel"/><path id="shape6" transform="matrix(0.43103443994585 0 0 0.43103443994585 160.423441194124 318.3920787223)" fill="none" stroke="#000000" stroke-width="6.48" stroke-linecap="square" stroke-linejoin="miter" stroke-miterlimit="2" d="M0 0L64.08 0"/><path id="shape7" transform="matrix(0.43103443994585 0 0 0.43103443994585 158.000834134777 307.917941631727)" fill="none" stroke="#000000" stroke-width="4.32" stroke-linecap="square" stroke-linejoin="bevel" d="M6.70045 0C-1.57955 11.76 -2.05955 19.86 5.26045 24.3C-0.859551 27.06 -1.63955 33.6 2.92045 43.92L2.56045 43.92"/><path id="shape8" transform="matrix(0.999999960263572 0 0 0.999999960263572 161.405185917345 330.901726036054)" fill="none" stroke="#000000" stroke-width="4.32" stroke-linecap="round" stroke-linejoin="miter" stroke-miterlimit="2.16000008583069" d="M20.8753 0L0 0"/><path id="shape9" transform="matrix(0.999999960263572 0 0 0.999999960263572 127.60564535295 330.901726030071)" fill="none" stroke="#000000" stroke-width="3.6" stroke-linecap="square" stroke-linejoin="bevel" d="M34.1829 0C7.32432 11.742 -3.70655 34.0159 1.09034 66.8216"/><g id="group0" transform="matrix(0.999999945791629 0 0 0.999999955097285 223.026419576978 366.285340954671)" fill="none">
  <path id="shape0" transform="translate(-1.4210854715202e-14, 2.34375986847448)" fill="none" stroke="#000000" stroke-width="8.64" stroke-linecap="square" stroke-linejoin="miter" stroke-miterlimit="2" d="M0 0L0 62.6866"/>
  <ellipse id="shape11" transform="translate(1.00168721737033, -2.8421709430404e-14)" rx="17.1826942807124" ry="23.7929154903844" cx="17.1826942807124" cy="23.7929154903844" fill="none" stroke="#000000" stroke-width="7.92" stroke-linecap="square" stroke-linejoin="bevel"/>
 </g><g id="group01" transform="matrix(0.495266057357491 0 0 0.495266059506702 228.81387465472 316.481167996635)" fill="none">
  <path id="shape01" transform="translate(0, 2.34375986847459)" fill="none" stroke="#000000" stroke-width="8.64" stroke-linecap="square" stroke-linejoin="miter" stroke-miterlimit="2" d="M0 0L0 62.6866"/>
  <ellipse id="shape11" transform="translate(1.00168721737037, 0)" rx="17.1826942807124" ry="23.7929154903844" cx="17.1826942807124" cy="23.7929154903844" fill="none" stroke="#000000" stroke-width="7.92" stroke-linecap="square" stroke-linejoin="bevel"/>
 </g><g id="group1" transform="matrix(0.999999945791629 0 0 0.999999955097285 271.919334767174 366.289417806468)" fill="none">
  <path id="shape21" transform="translate(-0.000350232083945912, 0.000481423046977625)" fill="none" stroke="#000000" stroke-width="7.92" stroke-linecap="square" stroke-linejoin="bevel" d="M38.071 22.269L38.068 22.158L37.926 20.486L37.694 18.851L37.375 17.256L36.972 15.705L36.488 14.203L35.926 12.754L35.291 11.361L34.584 10.028L33.809 8.76L32.97 7.561L32.069 6.435L31.111 5.385L30.097 4.417L29.032 3.533L27.918 2.738L26.759 2.035L25.558 1.43L24.318 0.926L23.043 0.527L21.735 0.236L20.398 0.059L19.036 0L17.673 0.059L16.336 0.236L15.029 0.527L13.753 0.926L12.513 1.43L11.312 2.035L10.153 2.738L9.039 3.533L7.974 4.417L6.96 5.385L6.002 6.435L5.101 7.561L4.262 8.76L3.487 10.028L2.781 11.361L2.145 12.754L1.583 14.203L1.099 15.705L0.696 17.256L0.377 18.851L0.145 20.486L0.003 22.158L0 22.269L38.071 22.269"/>
  <path id="shape31" transform="translate(1.68065996777244, 21.6090467747628)" fill="none" stroke="#000000" stroke-width="7.92" stroke-linecap="square" stroke-linejoin="miter" stroke-miterlimit="2" d="M0 0L34.7442 0"/>
  <path id="shape41" transform="translate(0.729440520674927, 25.4517802631524)" fill="none" stroke="#000000" stroke-width="7.92" stroke-linecap="square" stroke-linejoin="bevel" d="M0 0C1.16749 20.8521 12.962 26.7918 35.3836 17.8191"/>
 </g><g id="group011" transform="matrix(0.523365353241589 0 0 0.523365361545845 253.487580090817 315.744034070938)" fill="none">
  <path id="shape011" transform="translate(-0.000350232084031177, 0.00048142304706289)" fill="none" stroke="#000000" stroke-width="7.92" stroke-linecap="square" stroke-linejoin="bevel" d="M38.071 22.269L38.068 22.158L37.926 20.486L37.694 18.851L37.375 17.256L36.972 15.705L36.488 14.203L35.926 12.754L35.291 11.361L34.584 10.028L33.809 8.76L32.97 7.561L32.069 6.435L31.111 5.385L30.097 4.417L29.032 3.533L27.918 2.738L26.759 2.035L25.558 1.43L24.318 0.926L23.043 0.527L21.735 0.236L20.398 0.059L19.036 0L17.673 0.059L16.336 0.236L15.029 0.527L13.753 0.926L12.513 1.43L11.312 2.035L10.153 2.738L9.039 3.533L7.974 4.417L6.96 5.385L6.002 6.435L5.101 7.561L4.262 8.76L3.487 10.028L2.781 11.361L2.145 12.754L1.583 14.203L1.099 15.705L0.696 17.256L0.377 18.851L0.145 20.486L0.003 22.158L0 22.269L38.071 22.269"/>
  <path id="shape111" transform="translate(1.68065996777244, 21.6090467747628)" fill="none" stroke="#000000" stroke-width="7.92" stroke-linecap="square" stroke-linejoin="miter" stroke-miterlimit="2" d="M0 0L34.7442 0"/>
  <path id="shape21" transform="translate(0.729440520674927, 25.4517802631524)" fill="none" stroke="#000000" stroke-width="7.92" stroke-linecap="square" stroke-linejoin="bevel" d="M0 0C1.16749 20.8521 12.962 26.7918 35.3836 17.8191"/>
 </g><g id="group2" transform="matrix(0.999999945791629 0 0 0.999999955097285 326.519981539113 368.006909346359)" fill="none">
  <path id="shape51" transform="translate(2.8421709430404e-14, 0.35982005125058)" fill="none" stroke="#000000" stroke-width="8.64" stroke-linecap="square" stroke-linejoin="miter" stroke-miterlimit="2" d="M0 0L0 44.1902"/>
  <path id="shape61" transform="translate(1.98001149137701, -2.8421709430404e-14)" fill="none" stroke="#000000" stroke-width="7.92" stroke-linecap="square" stroke-linejoin="bevel" d="M0 10.44C9.9 3.48 15.93 1.29526e-16 18.09 0"/>
 </g><g id="group02" transform="matrix(0.481991353258959 0 0 0.481991359966308 280.457444046337 317.669005948945)" fill="none">
  <path id="shape02" transform="translate(0, 0.359820051250608)" fill="none" stroke="#000000" stroke-width="8.64" stroke-linecap="square" stroke-linejoin="miter" stroke-miterlimit="2" d="M0 0L0 44.1902"/>
  <path id="shape12" transform="translate(1.98001149137696, 0)" fill="none" stroke="#000000" stroke-width="7.92" stroke-linecap="square" stroke-linejoin="bevel" d="M0 10.44C9.9 3.48 15.93 1.29526e-16 18.09 0"/>
 </g><g id="group3" transform="matrix(0.999999945791629 0 0 0.999999955097285 443.789987904241 350.321906776642)" fill="none">
  <path id="shape71" transform="translate(0, 18.3150006916619)" fill="none" stroke="#000000" stroke-width="7.92" stroke-linecap="square" stroke-linejoin="miter" stroke-miterlimit="2" d="M0 0L0 43.74"/>
  <path id="shape81" transform="translate(0.13500000570059, 0)" fill="none" stroke="#000000" stroke-width="9.36" stroke-linecap="square" stroke-linejoin="miter" stroke-miterlimit="2" d="M0 0L0 0.314997"/>
 </g><path id="shape91" transform="matrix(-0.999930624580955 -0.0117744473783143 0.0117744472687454 -0.999930633885967 338.438820179171 339.073585863162)" fill="none" stroke="#000000" stroke-width="4.32" stroke-linecap="square" stroke-linejoin="miter" stroke-miterlimit="2" d="M0 0L0 21.9182"/><path id="shape10" transform="matrix(0.999999945791629 0 0 0.999999955097285 338.714993371134 308.787684957259)" fill="none" stroke="#000000" stroke-width="5.04" stroke-linecap="square" stroke-linejoin="miter" stroke-miterlimit="2" d="M0 0L0 0.675776"/><ellipse id="shape111" transform="matrix(0.999999945791629 0 0 0.999999955097285 461.785695194901 366.755490409709)" rx="19.2828026503176" ry="23.5661472422473" cx="19.2828026503176" cy="23.5661472422473" fill="none" stroke="#000000" stroke-width="7.92" stroke-linecap="square" stroke-linejoin="bevel"/><ellipse id="shape03" transform="matrix(0.999999962047117 0 0 0.999999956056845 347.399990074438 316.841907369207)" rx="9.72000022106058" ry="11.5650004399186" cx="9.72000022106058" cy="11.5650004399186" fill="none" stroke="#000000" stroke-width="4.32" stroke-linecap="square" stroke-linejoin="bevel"/><g id="group01" transform="matrix(0.999999985528056 0 0 0.999999994833713 517.40670814812 366.538569081364)" fill="none">
  <path id="shape121" transform="matrix(0.999999960263572 0 0 0.999999960263572 0 0.765016604328565)" fill="none" stroke="#000000" stroke-width="7.92" stroke-linecap="square" stroke-linejoin="miter" stroke-miterlimit="2" d="M0 0L0 46.4571"/>
  <path id="shape01" transform="translate(1.35329889904568, -7.67252572586585e-09)" fill="none" stroke="#000000" stroke-width="7.92" stroke-linecap="square" stroke-linejoin="bevel" d="M0 8.39835C10.0299 0.939267 12.1221 0.139542 16.4658 0.0649834C20.8095 -0.009575 24.7619 -0.800062 28.5573 5.98347C31.0876 10.5058 32.0235 24.1508 31.365 46.9183"/>
 </g><g id="group021" transform="matrix(0.474669660833477 0 0 0.474669660730423 376.322800244687 316.932273283273)" fill="none">
  <path id="shape122" transform="matrix(0.999999960263572 0 0 0.999999960263572 0 0.765016604328537)" fill="none" stroke="#000000" stroke-width="7.92" stroke-linecap="square" stroke-linejoin="miter" stroke-miterlimit="2" d="M0 0L0 46.4571"/>
  <path id="shape021" transform="translate(1.35329889904563, -1.13734586193459e-08)" fill="none" stroke="#000000" stroke-width="7.92" stroke-linecap="square" stroke-linejoin="bevel" d="M0 8.39835C10.0299 0.939267 12.1221 0.139542 16.4658 0.0649834C20.8095 -0.009575 24.7619 -0.800062 28.5573 5.98347C31.0876 10.5058 32.0235 24.1508 31.365 46.9183"/>
 </g><g id="group11" transform="matrix(0.999999985528056 0 0 0.999999994833713 405.701881795304 353.696405026591)" fill="none">
  <path id="shape12" transform="translate(6.62491549172313, -2.8421709430404e-14)" fill="none" stroke="#000000" stroke-width="7.92" stroke-linecap="square" stroke-linejoin="miter" stroke-miterlimit="2" d="M0 0L0 47.7005"/>
  <path id="shape22" transform="translate(0, 14.4608569227599)" fill="none" stroke="#000000" stroke-width="7.2" stroke-linecap="square" stroke-linejoin="miter" stroke-miterlimit="2" d="M0 0L23.9581 0"/>
  <path id="shape32" transform="translate(6.67685032945718, 48.0605136424006)" fill="none" stroke="#000000" stroke-width="7.92" stroke-linecap="square" stroke-linejoin="bevel" d="M0.00127229 0C-0.0963699 8.41308 5.42618 12.1173 16.5689 11.1126"/>
 </g><g id="group03" transform="matrix(0.514125633994368 0 0 0.514125635185881 319.154264916054 309.594003616254)" fill="none">
  <path id="shape031" transform="translate(6.62491549172307, 5.6843418860808e-14)" fill="none" stroke="#000000" stroke-width="7.92" stroke-linecap="square" stroke-linejoin="miter" stroke-miterlimit="2" d="M0 0L0 47.7005"/>
  <path id="shape121" transform="translate(-5.6843418860808e-14, 14.4608569227599)" fill="none" stroke="#000000" stroke-width="7.2" stroke-linecap="square" stroke-linejoin="miter" stroke-miterlimit="2" d="M0 0L23.9581 0"/>
  <path id="shape22" transform="translate(6.67685033233289, 48.0605136424006)" fill="none" stroke="#000000" stroke-width="7.92" stroke-linecap="square" stroke-linejoin="bevel" d="M0.00127229 0C-0.0963699 8.41308 5.42618 12.1173 16.5689 11.1126"/>
 </g><g id="group21" transform="matrix(0.999999985528056 0 0 0.999999994833713 357.754205952823 366.877378124373)" fill="none">
  <path id="shape42" transform="translate(32.7551352828589, 12.0086251476872)" fill="none" stroke="#000000" stroke-width="7.92" stroke-linecap="square" stroke-linejoin="miter" stroke-miterlimit="2" d="M0 0L0 33.8563"/>
  <path id="shape52" transform="translate(3.35363937026278, -1.0898707216711e-06)" fill="none" stroke="#000000" stroke-width="7.92" stroke-linecap="square" stroke-linejoin="bevel" d="M28.7014 8.57208C27.0468 0.129222 17.4797 -2.07695 0 1.95357"/>
  <path id="shape62" transform="translate(-1.10582789147884e-07, 18.7837858358064)" fill="none" stroke="#000000" stroke-width="7.92" stroke-linecap="square" stroke-linejoin="bevel" d="M32.9461 0.225201C17.9908 -0.602114 10.354 0.861597 5.00827 4.42542C-0.337458 7.98923 -0.592016 16.2624 0.553497 20.5899C1.69901 24.9174 8.07871 29.2422 13.3608 28.6058C16.8822 28.1815 22.8591 25.4459 31.2914 20.399"/>
 </g><g id="group04" transform="matrix(0.502235342593869 0 0 0.502235353288243 295.573302744805 316.044555713389)" fill="none">
  <path id="shape04" transform="translate(32.7551352828589, 12.0086251476872)" fill="none" stroke="#000000" stroke-width="7.92" stroke-linecap="square" stroke-linejoin="miter" stroke-miterlimit="2" d="M0 0L0 33.8563"/>
  <path id="shape13" transform="translate(3.35363937026273, -1.96771964056097e-06)" fill="none" stroke="#000000" stroke-width="7.92" stroke-linecap="square" stroke-linejoin="bevel" d="M28.7014 8.57208C27.0468 0.129223 17.4797 -2.07695 0 1.95357"/>
  <path id="shape23" transform="translate(-2.21165521452349e-07, 18.7837857145926)" fill="none" stroke="#000000" stroke-width="7.92" stroke-linecap="square" stroke-linejoin="bevel" d="M32.9461 0.225201C17.9908 -0.602114 10.354 0.861597 5.00827 4.42542C-0.337458 7.98923 -0.592016 16.2624 0.553497 20.5899C1.69901 24.9174 8.07871 29.2422 13.3608 28.6058C16.8822 28.1815 22.8591 25.4459 31.2914 20.399"/>
 </g>
</svg>
